<?xml version="1.0" encoding="utf-8"?>
<!-- Generator: Adobe Illustrator 22.0.1, SVG Export Plug-In . SVG Version: 6.00 Build 0)  -->
<svg version="1.1" id="Layer_1" xmlns="http://www.w3.org/2000/svg" xmlns:xlink="http://www.w3.org/1999/xlink" x="0px" y="0px"
	 viewBox="0 0 270.3 79" style="enable-background:new 0 0 270.3 79;" xml:space="preserve">
<style type="text/css">
	.st0{fill:#ED1C24;}
</style>
<g>
	<path class="st0" d="M33.9,43.2c0,2.3,0.6,4.2,1.9,5.6c1.3,1.4,3,2.1,5.2,2.1c1.6,0,3.2-0.5,4.8-1.5c1.6-1,2.8-2.2,3.8-3.8
		l10.9,4.1L59,51.8c-2.2,2.9-4.9,5-8.2,6.6c-3.3,1.5-7,2.3-11,2.3c-5.9,0-10.6-1.6-14-4.9c-3.5-3.3-5.2-7.7-5.2-13.3
		c0-6.5,2.3-12,6.9-16.7c4.6-4.7,10.1-7,16.6-7c5.8,0,10.4,1.7,13.6,5.1c3.2,3.4,4.8,8.1,4.8,14.2c0,0.6,0,1.3-0.1,2
		c-0.1,0.7-0.2,1.7-0.3,3.1H33.9z M34.6,35.5h14.9V35c0-2.2-0.6-4-1.7-5.2c-1.1-1.2-2.7-1.9-4.7-1.9c-2.1,0-3.9,0.7-5.4,2
		C36.3,31.2,35.2,33.1,34.6,35.5z"/>
</g>
<g>
	<path d="M88.8,51.2L85,45.1c-0.3,0-0.6,0-0.9,0h-4.8v6.1h-3.4V30.9h8.3c5.2,0,8.2,2.5,8.2,6.9c0,3.3-1.5,5.5-4.2,6.6l4.6,6.8H88.8z
		 M84.1,42c3.1,0,4.9-1.3,4.9-4.1c0-2.7-1.8-4-4.9-4h-4.8v8H84.1z"/>
	<path d="M110.3,44.8H98.6c0.5,2.4,2.4,3.9,4.8,3.9c1.7,0,3.2-0.6,4.4-1.8l1.8,1.9c-1.5,1.7-3.7,2.6-6.4,2.6c-4.8,0-7.9-3.2-7.9-7.8
		c0-4.7,3.2-7.8,7.8-7.9C108.5,35.7,110.7,39.2,110.3,44.8z M107.3,42.4c-0.1-2.5-1.8-4-4.3-4c-2.4,0-4.2,1.5-4.5,4H107.3z"/>
	<path d="M127.7,35.8v13.9c0,4.4-3.2,7.2-8,7.2c-2.4,0-4.5-0.8-6.4-2l1.4-2.4c1.5,1.1,3,1.7,4.9,1.7c2.9,0,4.9-1.7,4.9-4.4v-1.9
		c-1,1.7-2.8,2.6-5.1,2.6c-4.2,0-7-3-7-7.5c0-4.4,2.8-7.3,6.9-7.4c2.4,0,4.2,0.9,5.2,2.6v-2.5H127.7z M124.4,43.1
		c0-2.8-1.8-4.7-4.4-4.7c-2.6,0-4.5,2-4.5,4.7c0,2.8,1.8,4.8,4.5,4.8C122.5,47.9,124.4,45.9,124.4,43.1z"/>
	<path d="M135.9,31.4c0,1.1-0.8,2-1.9,2s-1.9-0.8-1.9-2c0-1.2,0.8-2,1.9-2S135.9,30.2,135.9,31.4z M135.7,35.8v15.5h-3.3V35.8H135.7
		z"/>
	<path d="M144.9,38.3c-1.3,0-2.3,0.4-2.3,1.5c0,2.8,8.2,1.3,8.2,6.9c0,3.2-2.8,4.6-5.9,4.6c-2.3,0-4.7-0.8-6.2-2.2l1.2-2.4
		c1.3,1.2,3.5,1.9,5.2,1.9c1.4,0,2.5-0.5,2.5-1.7c0-3.2-8.1-1.4-8.1-7c0-3.1,2.7-4.5,5.7-4.5c1.9,0,4,0.6,5.4,1.6l-1.2,2.5
		C148,38.8,146.3,38.3,144.9,38.3z"/>
	<path d="M163,50.3c-1.2,0.7-2.5,1.1-3.8,1.1c-2.3,0-4.3-1.3-4.3-4.5v-8h-2.2v-2.5h2.2v-4.2h3.3v4.2h4.6v2.5h-4.6v7.4
		c0,1.6,0.6,2.1,1.7,2.1c0.7,0,1.4-0.2,2.3-0.7L163,50.3z"/>
	<path d="M174.8,35.7v3.2c-3.1-0.2-5.1,1.7-5.3,4.3v8.1h-3.3V35.8h3.3v3.1C170.5,36.8,172.3,35.7,174.8,35.7z"/>
	<path d="M186.2,51.2v-1.9c-1.1,1.4-2.9,2-5.1,2c-3.3,0-5.4-2.1-5.4-4.8c0-2.8,2.1-4.6,5.8-4.6h4.7v-0.5c0-1.9-1.2-3.1-3.7-3.1
		c-1.5,0-3,0.5-4.6,1.6l-1.4-2.3c2.2-1.3,3.7-1.9,6.7-1.9c4,0,6.2,2,6.2,5.4l0,10.1H186.2z M186.2,45.8v-1.4H182
		c-2.2,0-3.2,0.6-3.2,2.1c0,1.4,1.1,2.3,3,2.3C184.1,48.7,186,47.5,186.2,45.8z"/>
	<path d="M202.7,50.3c-1.2,0.7-2.5,1.1-3.8,1.1c-2.3,0-4.3-1.3-4.3-4.5v-8h-2.2v-2.5h2.2v-4.2h3.3v4.2h4.6v2.5h-4.6v7.4
		c0,1.6,0.6,2.1,1.7,2.1c0.7,0,1.4-0.2,2.3-0.7L202.7,50.3z"/>
	<path d="M209.4,31.4c0,1.1-0.8,2-1.9,2c-1.1,0-1.9-0.8-1.9-2c0-1.2,0.8-2,1.9-2C208.5,29.4,209.4,30.2,209.4,31.4z M209.1,35.8
		v15.5h-3.3V35.8H209.1z"/>
	<path d="M228.7,43.5c0,4.7-3.3,7.9-8,7.9c-4.8,0-8.1-3.2-8.1-7.9c0-4.6,3.3-7.8,8.1-7.8C225.4,35.7,228.7,38.8,228.7,43.5z
		 M215.9,43.5c0,3,1.9,5,4.7,5c2.8,0,4.7-2,4.7-5c0-3-1.9-5-4.7-5C217.9,38.5,215.9,40.6,215.9,43.5z"/>
	<path d="M247,41.6v9.6h-3.3v-8.7c0-2.3-1.4-3.7-3.7-3.7c-2.6,0-4.2,1.8-4.4,4.2v8.2h-3.3V35.8h3.3v3c1.1-2.1,3.1-3.1,5.7-3.1
		C244.8,35.7,247,37.9,247,41.6z"/>
</g>
<g>
	<path d="M72.1,41.2v2.3h-7.2v-2.3H72.1z"/>
</g>
</svg>
