<?xml version="1.0" encoding="utf-8"?>
<!-- Generator: Adobe Illustrator 22.0.1, SVG Export Plug-In . SVG Version: 6.00 Build 0)  -->
<svg version="1.1" id="Layer_1" xmlns="http://www.w3.org/2000/svg" xmlns:xlink="http://www.w3.org/1999/xlink" x="0px" y="0px"
	 viewBox="0 0 413.6 313.9" style="enable-background:new 0 0 413.6 313.9;" xml:space="preserve">
<style type="text/css">
	.st0{fill:#E8A642;}
	.st1{fill:#00AC98;}
	.st2{fill:#292526;}
</style>
<g>
	<g>
		<path class="st0" d="M168.7,246.7c-31.5-18.4-32.3-90,29.1-134.2C259.2,68.3,334.4,72,334.4,72c15.1,4.9,24.1,17.6,24.1,17.6
			s-97.8-10.2-157.1,36.8c-59.3,47.1-57.7,93.7-32.7,119.1V246.7"/>
		<path class="st1" d="M160.8,147.4c50.7-92.2,165.8-84.6,165.8-84.6C293.4,42.7,267.2,35,267.2,35c-34.9,10.9-70.4,38.2-70.4,38.2
			c-37.6-29.5-68.2-37.6-68.2-37.6c-38.9,9.8-59.5,25.6-59.5,25.6c78,2.2,109.1,31.6,109.1,31.6c-8.2,6-19.1,24-19.1,24
			C107.4,93.4,29.3,99.9,29.3,99.9c-14.7,26.2-11.2,52-11.2,52c73.9-31.5,131.8-13.2,131.8-13.2c-19.6,48.6-1.1,86.2-1.1,86.2
			C133,190,160.8,147.4,160.8,147.4"/>
		<path class="st1" d="M196.8,48.7c0,0,18.9-21.3,23.6-22.9c0,0-36.7-1.9-45.8,0C174.6,25.7,190.8,36.7,196.8,48.7"/>
		<path class="st1" d="M229.7,220.5c0,0-4.5,31.1-38.9,26.2c0,0-28.2-3.3-25.4-37.2c0,0,2.5-29.9,31.5-49.9
			C197,159.5,230.1,175.5,229.7,220.5 M354,99.9c0,0-121.7-14.8-177.9,60.6c-23.9,32-23.7,59.3-13.3,74.5
			c11.9,17.4,37.1,20,52.6,13.3c0,0,27.8-12.3,22.1-47.1c-2.3-14.1-6.1-28.2-26.6-50.7c0,0,12.3-9,19.2-7.8c0,0,31.1,36.4,17.2,79
			c0,0,16.4-29-1.6-83.9c0,0,59.7-16.4,129.7,13.1C375.4,151,376.7,132.8,354,99.9z"/>
		<polyline class="st2" points="159.3,267.7 163.1,267.7 166,275.5 169.1,267.7 172.9,267.7 175.1,282.2 171.3,282.2 170.2,273.9 
			170.2,273.9 166.7,282.2 165.2,282.2 161.9,273.9 161.8,273.9 160.6,282.2 156.9,282.2 159.3,267.7 		"/>
		<path class="st2" d="M188,282.2h3.8v-4.8h2.1c3.3,0,5.1-1.5,5.1-4.9c0-3.3-2.1-4.8-5.3-4.8H188V282.2 M191.8,270.8h0.6
			c1.5,0,2.7,0,2.7,1.8c0,1.8-1.4,1.8-2.7,1.8h-0.6V270.8z"/>
		<path class="st2" d="M219.4,267.3c-4.2,0-8,3.1-8,7.4c0,4.7,3.4,8,8,8c4.7,0,8-3.3,8-8C227.4,270.4,223.6,267.3,219.4,267.3
			 M219.4,270.9c2.3,0,4.1,1.8,4.1,3.8c0,2.5-1.8,4.3-4.1,4.3c-2.2,0-4.1-1.8-4.1-4.3C215.3,272.7,217.2,270.9,219.4,270.9z"/>
		<path class="st2" d="M244.3,270.6h0.3c1,0,2.2,0.1,2.2,1.4c0,1.2-1,1.4-2,1.4h-0.4V270.6 M246.4,282.2c2.7,0,5.3-1,5.3-4
			c0-2-0.9-3.4-3-3.7v0c1.2-0.6,1.6-1.6,1.6-2.9c0-2.8-1.7-3.8-4.3-3.8h-5.4v14.5H246.4z M244.3,276.2h0.4c1.2,0,3.1-0.2,3.1,1.6
			c0,1.6-1.9,1.5-3,1.5h-0.5V276.2z"/>
	</g>
</g>
</svg>
